<svg width="411" height="448" viewBox="0 0 411 448" fill="none" xmlns="http://www.w3.org/2000/svg">
<path d="M339.462 68.8087C339.462 59.3117 335.693 50.2036 328.985 43.4881C322.277 36.7727 313.179 33 303.692 33C294.206 33 285.108 36.7727 278.4 43.4881C271.692 50.2036 267.923 59.3117 267.923 68.8087C267.923 78.3058 271.692 87.4139 278.4 94.1293C285.108 100.845 294.206 104.617 303.692 104.617C313.179 104.617 322.277 100.845 328.985 94.1293C335.693 87.4139 339.462 78.3058 339.462 68.8087ZM194.671 163.926C202.048 156.54 212.108 152.362 222.615 152.362C224.031 152.362 225.447 152.437 226.788 152.586L203.538 222.488C196.608 243.376 204.805 266.353 223.51 278.066L287.745 318.276L268.817 384.522C265.166 397.204 272.543 410.409 285.212 414.064C297.88 417.72 311.07 410.334 314.721 397.652L336.108 322.752C340.505 307.384 334.171 290.972 320.683 282.542L278.356 256.058L301.382 194.587L305.183 203.763C316.361 230.47 342.368 247.852 371.281 247.852H387.154C400.344 247.852 411 237.184 411 223.98C411 210.775 400.344 200.107 387.154 200.107H371.281C361.668 200.107 352.95 194.288 349.298 185.411L344.603 174.221C333.724 148.036 311.74 128.042 284.615 119.687L248.325 108.497C240.053 105.96 231.409 104.617 222.69 104.617C199.589 104.617 177.382 113.793 161.062 130.206L143.774 147.439C134.459 156.764 134.459 171.908 143.774 181.233C153.089 190.558 168.216 190.558 177.531 181.233L194.745 164L194.671 163.926ZM168.962 295.597H124.846C111.656 295.597 101 306.265 101 319.47C101 332.674 111.656 343.342 124.846 343.342H176.712C190.87 343.342 203.688 334.987 209.425 322.081L217.995 302.759L210.916 298.283C197.875 290.151 188.187 278.29 182.673 264.787L168.962 295.597Z" fill="#50b4fc"/>
<path d="M160 64H96C78.3 64 64 78.3 64 96V352C64 369.7 78.3 384 96 384H160C177.7 384 192 398.3 192 416C192 433.7 177.7 448 160 448H96C43 448 0 405 0 352V96C0 43 43 0 96 0H160C177.7 0 192 14.3 192 32C192 49.7 177.7 64 160 64Z" fill="#80CAFF"/>
</svg>
